<svg width="20" height="23" viewBox="0 0 20 23" fill="none" xmlns="http://www.w3.org/2000/svg">
<g id="Frame">
<path id="Vector" d="M10.39 10.556C13.0381 10.556 15.1843 8.4171 15.1843 5.778C15.1843 3.1389 13.0381 1 10.39 1C7.74184 1 5.59563 3.1389 5.59563 5.778C5.59563 8.4171 7.74184 10.556 10.39 10.556ZM13.746 11.7505H13.1205C12.289 12.1313 11.3638 12.3478 10.39 12.3478C9.41611 12.3478 8.4947 12.1313 7.65944 11.7505H7.03393C4.25471 11.7505 1.99988 13.9977 1.99988 16.7674V18.3203C1.99988 19.3095 2.80518 20.112 3.79775 20.112H16.9822C17.9747 20.112 18.78 19.3095 18.78 18.3203V16.7674C18.78 13.9977 16.5252 11.7505 13.746 11.7505Z" fill="#4FA1C1"/>
</g>
</svg>
