<svg width="14" height="15" viewBox="0 0 14 15" fill="none" xmlns="http://www.w3.org/2000/svg">
<g id="Group 88">
<rect id="Rectangle 7.3" width="13.6727" height="14.0155" rx="4" fill="white"/>
<path id="Vector" d="M9.16668 6.61719V7.20946C9.16668 7.34907 9.05307 7.46329 8.9142 7.46329H5.37949C5.24063 7.46329 5.12701 7.34907 5.12701 7.20946V6.61719C5.12701 6.47758 5.24063 6.36336 5.37949 6.36336H8.9142C9.05307 6.36336 9.16668 6.47758 9.16668 6.61719ZM8.9142 8.14018H5.37949C5.24063 8.14018 5.12701 8.2544 5.12701 8.39401V8.98628C5.12701 9.12589 5.24063 9.24011 5.37949 9.24011H8.9142C9.05307 9.24011 9.16668 9.12589 9.16668 8.98628V8.39401C9.16668 8.2544 9.05307 8.14018 8.9142 8.14018ZM11.1865 4.16137V11.1862C11.1865 11.7467 10.7342 12.2015 10.1766 12.2015H4.1171C3.55954 12.2015 3.10718 11.7467 3.10718 11.1862V2.38666C3.10718 1.82612 3.55954 1.37134 4.1171 1.37134H8.41135C8.67856 1.37134 8.93524 1.47922 9.1246 1.66959L10.8899 3.44429C11.0792 3.63255 11.1865 3.89273 11.1865 4.16137ZM8.4934 2.46916V4.07887H10.0945L8.4934 2.46916ZM10.1766 11.1862V5.0942H7.98845C7.70861 5.0942 7.48349 4.86787 7.48349 4.58654V2.38666H4.1171V11.1862H10.1766Z" fill="#4FA1C1"/>
</g>
</svg>
